<?xml version="1.0" encoding="UTF-8"?>
<svg width="24px" height="24px" viewBox="0 0 24 24" version="1.1" xmlns="http://www.w3.org/2000/svg" xmlns:xlink="http://www.w3.org/1999/xlink">
    <!-- Generator: Sketch 46.2 (44496) - http://www.bohemiancoding.com/sketch -->
    <title>download</title>
    <desc>Created with Sketch.</desc>
    <defs></defs>
    <g id="Page-1" stroke="none" stroke-width="1" fill="none" fill-rule="evenodd">
        <g id="Main" transform="translate(-409.000000, -331.000000)" fill-rule="nonzero" fill="#FFFFFF">
            <g id="download" transform="translate(421.000000, 343.000000) scale(-1, 1) translate(-421.000000, -343.000000) translate(409.000000, 331.000000)">
                <path d="M23.3123939,11.1832118 C22.9303905,11.1832118 22.6247878,11.5020781 22.6247878,11.9006609 L22.6247878,18.4267902 C22.6247878,20.2018124 21.2393888,21.6420249 19.5432937,21.6420249 L4.45670628,21.6420249 C2.75551783,21.6420249 1.37521222,20.1964979 1.37521222,18.4267902 L1.37521222,11.7943721 C1.37521222,11.3957893 1.06960951,11.0769231 0.687606112,11.0769231 C0.305602716,11.0769231 0,11.3957893 0,11.7943721 L0,18.4267902 C0,20.9936636 2.00169779,23.0769231 4.45670628,23.0769231 L19.5432937,23.0769231 C22.0033956,23.0769231 24,20.9883491 24,18.4267902 L24,11.9006609 C24,11.5073925 23.6943973,11.1832118 23.3123939,11.1832118 Z" id="Shape"></path>
                <path d="M11.0554319,17.3281052 C11.1883289,17.4648368 11.3672288,17.5384615 11.5410173,17.5384615 C11.7148057,17.5384615 11.8937056,17.4700957 12.0266026,17.3281052 L16.4122055,12.8159613 C16.683111,12.5372391 16.683111,12.0902318 16.4122055,11.8115096 C16.1412999,11.5327875 15.7068288,11.5327875 15.4359233,11.8115096 L12.2310597,15.1141045 L12.2310597,0.709952716 C12.2310597,0.31553454 11.9243741,0 11.5410173,0 C11.1576604,0 10.8509748,0.31553454 10.8509748,0.709952716 L10.8509748,15.1141045 L7.64099983,11.8115096 C7.37009429,11.5327875 6.93562315,11.5327875 6.66471761,11.8115096 C6.39381208,12.0902318 6.39381208,12.5372391 6.66471761,12.8159613 L11.0554319,17.3281052 Z" id="Shape"></path>
            </g>
        </g>
    </g>
</svg>