<?xml version="1.0" encoding="UTF-8"?>
<svg width="24px" height="22px" viewBox="0 0 24 22" version="1.1" xmlns="http://www.w3.org/2000/svg" xmlns:xlink="http://www.w3.org/1999/xlink">
    <!-- Generator: Sketch 46.2 (44496) - http://www.bohemiancoding.com/sketch -->
    <title>heart</title>
    <desc>Created with Sketch.</desc>
    <defs></defs>
    <g id="Page-1" stroke="none" stroke-width="1" fill="none" fill-rule="evenodd">
        <g id="Main" transform="translate(-450.000000, -333.000000)" fill-rule="nonzero" fill="#FFFFFF">
            <g id="heart" transform="translate(450.000000, 333.000000)">
                <path d="M22.0614628,2.04926695 C20.804739,0.792543182 19.1409792,0.105669866 17.3652845,0.105669866 C15.5895898,0.105669866 13.920742,0.797631132 12.6640183,2.0543549 L12.0076726,2.71070051 L11.3411511,2.044179 C10.0844274,0.787455231 8.41049165,0.090406015 6.63479693,0.090406015 C4.86419016,0.090406015 3.19534241,0.782367281 1.94370659,2.0340031 C0.686982817,3.29072687 -0.00497844911,4.95957463 0.000109501372,6.73526935 C0.000109501372,8.51096407 0.697158718,10.1747239 1.95388249,11.4314476 L11.5090535,20.9866187 C11.6413402,21.1189054 11.8194185,21.1901367 11.9924088,21.1901367 C12.1653991,21.1901367 12.3434774,21.1239933 12.4757641,20.9917066 L22.0512869,11.4517994 C23.3080107,10.1950757 23.9999719,8.52622792 23.9999719,6.7505332 C24.0050599,4.97483848 23.3181866,3.30599072 22.0614628,2.04926695 Z M21.0845763,10.4800009 L11.9924088,19.5365528 L2.92059308,10.4647371 C1.92335478,9.46749876 1.37385613,8.14463163 1.37385613,6.73526935 C1.37385613,5.32590706 1.91826683,4.00303994 2.91550513,3.01088959 C3.90765547,2.01873925 5.2305226,1.4692406 6.63479693,1.4692406 C8.04415922,1.4692406 9.37211429,2.01873925 10.3693526,3.01597754 L11.5192294,4.16585435 C11.7888908,4.43551573 12.2213666,4.43551573 12.4910279,4.16585435 L13.6307288,3.02615344 C14.6279671,2.02891515 15.9559222,1.4794165 17.3601966,1.4794165 C18.7644709,1.4794165 20.087338,2.02891515 21.0845763,3.02106549 C22.0818146,4.01830379 22.6262253,5.34117091 22.6262253,6.7505332 C22.6313133,8.15989548 22.0818146,9.48276261 21.0845763,10.4800009 Z" id="Shape"></path>
            </g>
        </g>
    </g>
</svg>